<svg xmlns="http://www.w3.org/2000/svg" viewBox="0 0 102.32 46.03"><g id="Layer_2" data-name="Layer 2"><g id="Layer_1-2" data-name="Layer 1"><path d="M17.2.69a22.05,22.05,0,0,1,4.56.44A10,10,0,0,1,25.3,2.58a6.77,6.77,0,0,1,2.28,2.68,9.41,9.41,0,0,1,.81,4.13,7.72,7.72,0,0,1-1.2,4.42,8.69,8.69,0,0,1-3.56,2.89A8.52,8.52,0,0,1,28.47,20a9.75,9.75,0,0,1,1.59,5.62,9.67,9.67,0,0,1-1,4.6,8.93,8.93,0,0,1-2.77,3.17,12.47,12.47,0,0,1-4,1.81,17.62,17.62,0,0,1-4.59.59H.69V.69Zm-1,14.2a5.5,5.5,0,0,0,3.39-1,3.68,3.68,0,0,0,1.33-3.19,4.1,4.1,0,0,0-.44-2,3.25,3.25,0,0,0-1.18-1.23,5,5,0,0,0-1.7-.61,10.75,10.75,0,0,0-2-.18H8.4v8.21Zm.45,14.88a10.14,10.14,0,0,0,2.16-.22,5.23,5.23,0,0,0,1.81-.74,3.72,3.72,0,0,0,1.26-1.4,4.83,4.83,0,0,0,.46-2.26,4.54,4.54,0,0,0-1.52-3.85,6.51,6.51,0,0,0-4-1.16H8.4v9.63Z" fill="none" stroke="#58595b" stroke-miterlimit="10" stroke-width="1.38"/><path d="M41.7.69V35.76h-7V.69Z" fill="none" stroke="#58595b" stroke-miterlimit="10" stroke-width="1.38"/><path d="M47.35,17.56a11.66,11.66,0,0,1,6.78-6.92,14.47,14.47,0,0,1,5.4-1,14.67,14.67,0,0,1,5.43,1,11.93,11.93,0,0,1,4.15,2.7,11.8,11.8,0,0,1,2.65,4.22,15.46,15.46,0,0,1,.94,5.53,15.22,15.22,0,0,1-.94,5.5,11.8,11.8,0,0,1-2.65,4.2A11.61,11.61,0,0,1,65,35.47a15.09,15.09,0,0,1-5.43.93,14.88,14.88,0,0,1-5.4-.93A11.58,11.58,0,0,1,50,32.79a11.82,11.82,0,0,1-2.66-4.2,15.44,15.44,0,0,1-.93-5.5A15.69,15.69,0,0,1,47.35,17.56Zm6.34,8.5a7.75,7.75,0,0,0,1,2.6,5.32,5.32,0,0,0,1.89,1.85,5.81,5.81,0,0,0,2.94.68,6.05,6.05,0,0,0,3-.68,5.3,5.3,0,0,0,1.91-1.85,8,8,0,0,0,1-2.6,15.34,15.34,0,0,0,.29-3,15.81,15.81,0,0,0-.29-3,7.8,7.8,0,0,0-1-2.6,5.52,5.52,0,0,0-1.91-1.84,5.74,5.74,0,0,0-3-.71,5.36,5.36,0,0,0-4.83,2.55,7.59,7.59,0,0,0-1,2.6,15,15,0,0,0-.3,3A14.6,14.6,0,0,0,53.69,26.06Z" fill="none" stroke="#58595b" stroke-miterlimit="10" stroke-width="1.38"/><path d="M101.21,37.63a8.7,8.7,0,0,1-1.79,3.66,10.8,10.8,0,0,1-4,2.87,17.1,17.1,0,0,1-7,1.18,16.26,16.26,0,0,1-3.8-.47,11.83,11.83,0,0,1-3.54-1.45,8.42,8.42,0,0,1-2.65-2.53,7.26,7.26,0,0,1-1.21-3.7h6.93a4,4,0,0,0,1.91,2.72,6.87,6.87,0,0,0,3.3.76,5.07,5.07,0,0,0,4.29-1.76A7,7,0,0,0,95,34.44V31.1h-.1a7,7,0,0,1-3.22,3,10.41,10.41,0,0,1-4.4,1,11.12,11.12,0,0,1-4.91-1A9.43,9.43,0,0,1,79,31.27,11.51,11.51,0,0,1,77,27.19a19.27,19.27,0,0,1-.61-4.94,16.05,16.05,0,0,1,.71-4.74,12.4,12.4,0,0,1,2.09-4,10,10,0,0,1,3.41-2.78,10.22,10.22,0,0,1,4.69-1,9.86,9.86,0,0,1,4.4.93,7.61,7.61,0,0,1,3.17,3.15H95V10.37h6.63V34.14A16.89,16.89,0,0,1,101.21,37.63Zm-9.55-8.45a5.46,5.46,0,0,0,1.86-1.57,7.12,7.12,0,0,0,1.11-2.24A9.42,9.42,0,0,0,95,22.75a14.27,14.27,0,0,0-.3-3,7.48,7.48,0,0,0-1-2.48,5.18,5.18,0,0,0-1.82-1.72,5.78,5.78,0,0,0-2.85-.63,5.06,5.06,0,0,0-2.53.59,5.38,5.38,0,0,0-1.77,1.59,6.94,6.94,0,0,0-1,2.31,11.6,11.6,0,0,0-.32,2.73,13.86,13.86,0,0,0,.27,2.72,7.41,7.41,0,0,0,.94,2.43,5.45,5.45,0,0,0,1.74,1.77,4.92,4.92,0,0,0,2.7.69A5.64,5.64,0,0,0,91.66,29.18Z" fill="none" stroke="#58595b" stroke-miterlimit="10" stroke-width="1.38"/></g></g></svg>