<svg xmlns="http://www.w3.org/2000/svg" viewBox="0 0 179.33 46.87"><g id="Layer_2" data-name="Layer 2"><g id="Layer_1-2" data-name="Layer 1"><path d="M24.71,10.88A7.92,7.92,0,0,0,23,8.94a8,8,0,0,0-5.06-1.76,9,9,0,0,0-4.42,1,8.41,8.41,0,0,0-2.95,2.7,11.85,11.85,0,0,0-1.64,3.86,19.39,19.39,0,0,0-.52,4.47,18.08,18.08,0,0,0,.52,4.3,11.53,11.53,0,0,0,1.64,3.75,8.45,8.45,0,0,0,2.95,2.68,9,9,0,0,0,4.42,1,7.15,7.15,0,0,0,5.53-2.16,10.07,10.07,0,0,0,2.43-5.7h7.47A17.9,17.9,0,0,1,31.83,29a14.23,14.23,0,0,1-3.24,4.52,13.74,13.74,0,0,1-4.71,2.85,17.48,17.48,0,0,1-5.95,1A17.85,17.85,0,0,1,10.69,36a15.49,15.49,0,0,1-5.43-3.85,17.22,17.22,0,0,1-3.39-5.77A21.36,21.36,0,0,1,.69,19.21a22,22,0,0,1,1.18-7.29A17.59,17.59,0,0,1,5.26,6.05a15.43,15.43,0,0,1,5.43-3.93A17.69,17.69,0,0,1,17.93.69a17.61,17.61,0,0,1,5.48.84A14.58,14.58,0,0,1,28,4a13.15,13.15,0,0,1,3.36,4,14.25,14.25,0,0,1,1.67,5.41H25.59A6.27,6.27,0,0,0,24.71,10.88Z" fill="none" stroke="#58595b" stroke-miterlimit="10" stroke-width="1.38"/><path d="M37.58,19a8.12,8.12,0,0,1,1.23-4.07,8.37,8.37,0,0,1,2.75-2.61,12.09,12.09,0,0,1,3.75-1.4,22.14,22.14,0,0,1,4.2-.41,28.44,28.44,0,0,1,3.88.27A12,12,0,0,1,57,11.84,7.08,7.08,0,0,1,59.63,14a6.09,6.09,0,0,1,1,3.71V31a26.8,26.8,0,0,0,.2,3.29,5.92,5.92,0,0,0,.69,2.36H54.48a8.63,8.63,0,0,1-.32-1.21A10.17,10.17,0,0,1,54,34.14a9,9,0,0,1-3.93,2.41,15.65,15.65,0,0,1-4.61.69,12.29,12.29,0,0,1-3.39-.45,7.64,7.64,0,0,1-2.75-1.37,6.32,6.32,0,0,1-1.84-2.36,7.86,7.86,0,0,1-.67-3.39,7.48,7.48,0,0,1,.76-3.56,6.38,6.38,0,0,1,2-2.23,8.77,8.77,0,0,1,2.75-1.26A30.35,30.35,0,0,1,45.39,22c1-.16,2.08-.3,3.09-.39a18,18,0,0,0,2.7-.45,4.58,4.58,0,0,0,1.87-.86,1.87,1.87,0,0,0,.64-1.64,3.64,3.64,0,0,0-.37-1.79,2.63,2.63,0,0,0-1-1,4,4,0,0,0-1.43-.5,11.89,11.89,0,0,0-1.74-.12,5.28,5.28,0,0,0-3.24.89A3.93,3.93,0,0,0,44.55,19Zm16.11,5.16a3,3,0,0,1-1.11.61,10.87,10.87,0,0,1-1.42.37c-.51.1-1,.18-1.6.25s-1.11.15-1.67.24a11.61,11.61,0,0,0-1.54.4A4.47,4.47,0,0,0,45,26.7a3.12,3.12,0,0,0-.91,1.06,3.36,3.36,0,0,0-.34,1.62A3.28,3.28,0,0,0,44.11,31,2.64,2.64,0,0,0,45,32a4,4,0,0,0,1.38.52,8.56,8.56,0,0,0,1.62.15,6.12,6.12,0,0,0,3.19-.69,4.56,4.56,0,0,0,1.67-1.65,5.35,5.35,0,0,0,.67-1.94,13.42,13.42,0,0,0,.12-1.57Z" fill="none" stroke="#58595b" stroke-miterlimit="10" stroke-width="1.38"/><path d="M80,11.2v4.67h-5.1V28.44a3.38,3.38,0,0,0,.59,2.36,3.42,3.42,0,0,0,2.35.59c.4,0,.77,0,1.13-.05a8,8,0,0,0,1-.15V36.6a15.52,15.52,0,0,1-2,.19c-.72,0-1.42.05-2.11.05a20,20,0,0,1-3.07-.22,7.23,7.23,0,0,1-2.56-.86,4.56,4.56,0,0,1-1.74-1.82,6.51,6.51,0,0,1-.64-3.09v-15H63.71V11.2h4.22V3.59h7V11.2Z" fill="none" stroke="#58595b" stroke-miterlimit="10" stroke-width="1.38"/><path d="M83.06,19a8.12,8.12,0,0,1,1.23-4.07A8.47,8.47,0,0,1,87,12.33a12.05,12.05,0,0,1,3.76-1.4,22,22,0,0,1,4.2-.41,28.55,28.55,0,0,1,3.88.27,12,12,0,0,1,3.58,1.05A7,7,0,0,1,105.11,14a6.09,6.09,0,0,1,1,3.71V31a26.8,26.8,0,0,0,.2,3.29A5.92,5.92,0,0,0,107,36.6H100a8.63,8.63,0,0,1-.32-1.21,8.55,8.55,0,0,1-.17-1.25,9.15,9.15,0,0,1-3.93,2.41,15.77,15.77,0,0,1-4.62.69,12.29,12.29,0,0,1-3.39-.45,7.64,7.64,0,0,1-2.75-1.37,6.32,6.32,0,0,1-1.84-2.36,8,8,0,0,1-.67-3.39A7.36,7.36,0,0,1,83,26.11a6.26,6.26,0,0,1,2-2.23,8.77,8.77,0,0,1,2.75-1.26A30.35,30.35,0,0,1,90.87,22c1-.16,2.08-.3,3.09-.39a18.42,18.42,0,0,0,2.71-.45,4.59,4.59,0,0,0,1.86-.86,1.87,1.87,0,0,0,.64-1.64,3.64,3.64,0,0,0-.37-1.79,2.63,2.63,0,0,0-1-1,4,4,0,0,0-1.43-.5,11.89,11.89,0,0,0-1.74-.12,5.3,5.3,0,0,0-3.24.89A4,4,0,0,0,90,19Zm16.11,5.16a3,3,0,0,1-1.11.61,10.87,10.87,0,0,1-1.42.37c-.51.1-1,.18-1.6.25s-1.11.15-1.67.24a11.61,11.61,0,0,0-1.54.4,4.47,4.47,0,0,0-1.33.66,3.12,3.12,0,0,0-.91,1.06,3.36,3.36,0,0,0-.34,1.62A3.28,3.28,0,0,0,89.59,31a2.59,2.59,0,0,0,.94,1,3.87,3.87,0,0,0,1.37.52,8.56,8.56,0,0,0,1.62.15,6.12,6.12,0,0,0,3.19-.69,4.56,4.56,0,0,0,1.67-1.65,5.17,5.17,0,0,0,.67-1.94,13.42,13.42,0,0,0,.12-1.57Z" fill="none" stroke="#58595b" stroke-miterlimit="10" stroke-width="1.38"/><path d="M118.72,1.53V36.6h-7V1.53Z" fill="none" stroke="#58595b" stroke-miterlimit="10" stroke-width="1.38"/><path d="M124.37,18.4a11.59,11.59,0,0,1,6.77-6.93,15.91,15.91,0,0,1,10.83,0,11.88,11.88,0,0,1,4.16,2.7,12.21,12.21,0,0,1,2.65,4.23,15.59,15.59,0,0,1,.93,5.52,15.5,15.5,0,0,1-.93,5.51,12.13,12.13,0,0,1-2.65,4.19A11.43,11.43,0,0,1,142,36.3a16.07,16.07,0,0,1-10.83,0A11.44,11.44,0,0,1,127,33.62a11.85,11.85,0,0,1-2.65-4.19,15.28,15.28,0,0,1-.94-5.51A15.37,15.37,0,0,1,124.37,18.4Zm6.33,8.5a7.92,7.92,0,0,0,1,2.6,5.29,5.29,0,0,0,1.89,1.84,5.78,5.78,0,0,0,3,.69,5.88,5.88,0,0,0,3-.69,5.27,5.27,0,0,0,1.91-1.84,7.92,7.92,0,0,0,1-2.6,14.69,14.69,0,0,0,.3-3,14.94,14.94,0,0,0-.3-3,7.72,7.72,0,0,0-1-2.61,5.62,5.62,0,0,0-1.91-1.84,5.78,5.78,0,0,0-3-.71,5.36,5.36,0,0,0-4.84,2.55,7.72,7.72,0,0,0-1,2.61,15.7,15.7,0,0,0-.29,3A15.44,15.44,0,0,0,130.7,26.9Z" fill="none" stroke="#58595b" stroke-miterlimit="10" stroke-width="1.38"/><path d="M178.22,38.46a8.58,8.58,0,0,1-1.79,3.66,10.73,10.73,0,0,1-4,2.88,17.24,17.24,0,0,1-7,1.17,16.26,16.26,0,0,1-3.81-.46,12.33,12.33,0,0,1-3.54-1.45,8.76,8.76,0,0,1-2.65-2.53,7.39,7.39,0,0,1-1.2-3.71h6.92a4,4,0,0,0,1.92,2.73,7,7,0,0,0,3.29.76,5.07,5.07,0,0,0,4.3-1.77,7,7,0,0,0,1.3-4.47V31.93h-.1a6.88,6.88,0,0,1-3.22,3,10.36,10.36,0,0,1-4.39,1,11.08,11.08,0,0,1-4.91-1A9.16,9.16,0,0,1,156,32.1,11.38,11.38,0,0,1,154.06,28a19.32,19.32,0,0,1-.62-4.94,15.65,15.65,0,0,1,.72-4.74,12.43,12.43,0,0,1,2.08-4,10.06,10.06,0,0,1,3.42-2.77,10.19,10.19,0,0,1,4.69-1,9.82,9.82,0,0,1,4.39.93,7.58,7.58,0,0,1,3.17,3.14h.1V11.2h6.63V35A16.88,16.88,0,0,1,178.22,38.46ZM168.67,30a5.48,5.48,0,0,0,1.87-1.57,7,7,0,0,0,1.1-2.23,9.14,9.14,0,0,0,.37-2.63,14.1,14.1,0,0,0-.3-3,7.28,7.28,0,0,0-1-2.48,5.09,5.09,0,0,0-1.82-1.72,5.66,5.66,0,0,0-2.84-.64,5.12,5.12,0,0,0-2.53.59,5.22,5.22,0,0,0-1.77,1.6,6.59,6.59,0,0,0-1,2.3,11.09,11.09,0,0,0-.32,2.73,13.89,13.89,0,0,0,.27,2.73,7.4,7.4,0,0,0,.93,2.43,5.45,5.45,0,0,0,1.74,1.77,5,5,0,0,0,2.71.68A5.45,5.45,0,0,0,168.67,30Z" fill="none" stroke="#58595b" stroke-miterlimit="10" stroke-width="1.38"/></g></g></svg>