<svg xmlns="http://www.w3.org/2000/svg" viewBox="0 0 135.66 37.09"><g id="Layer_2" data-name="Layer 2"><g id="Layer_1-2" data-name="Layer 1"><path d="M8.4.69V14.15H22.6V.69h7.71V35.76H22.6V20.63H8.4V35.76H.69V.69Z" fill="none" stroke="#58595b" stroke-miterlimit="10" stroke-width="1.38"/><path d="M36.5,17.56a11.8,11.8,0,0,1,2.65-4.22,11.94,11.94,0,0,1,4.13-2.7,14.43,14.43,0,0,1,5.4-1,14.67,14.67,0,0,1,5.43,1,11.55,11.55,0,0,1,6.8,6.92,15.69,15.69,0,0,1,.93,5.53,15.44,15.44,0,0,1-.93,5.5,11.94,11.94,0,0,1-2.65,4.2,11.61,11.61,0,0,1-4.15,2.68,15.09,15.09,0,0,1-5.43.93,14.85,14.85,0,0,1-5.4-.93,11.62,11.62,0,0,1-4.13-2.68,11.8,11.8,0,0,1-2.65-4.2,15.44,15.44,0,0,1-.94-5.5A15.69,15.69,0,0,1,36.5,17.56Zm6.33,8.5a8,8,0,0,0,1,2.6,5.49,5.49,0,0,0,1.89,1.85,5.88,5.88,0,0,0,3,.68,6,6,0,0,0,3-.68,5.41,5.41,0,0,0,1.92-1.85,7.74,7.74,0,0,0,1-2.6,14.6,14.6,0,0,0,.3-3,15,15,0,0,0-.3-3,7.58,7.58,0,0,0-1-2.6,5.46,5.46,0,0,0-4.89-2.55,5.58,5.58,0,0,0-3,.71,5.73,5.73,0,0,0-1.89,1.84,7.8,7.8,0,0,0-1,2.6,15.81,15.81,0,0,0-.29,3A15.34,15.34,0,0,0,42.83,26.06Z" fill="none" stroke="#58595b" stroke-miterlimit="10" stroke-width="1.38"/><path d="M73.14,10.37v3.44h.1a9.89,9.89,0,0,1,3.31-3.05A9,9,0,0,1,81,9.68a10.22,10.22,0,0,1,4.39.93,6.16,6.16,0,0,1,3,3.29A11,11,0,0,1,91.48,11a8.21,8.21,0,0,1,4.6-1.28,13.46,13.46,0,0,1,3.73.49,7.54,7.54,0,0,1,3,1.57,7.34,7.34,0,0,1,1.91,2.83,11.4,11.4,0,0,1,.69,4.2v17h-7V21.37c0-.85,0-1.65-.1-2.41a5.29,5.29,0,0,0-.54-2,3.29,3.29,0,0,0-1.31-1.33,4.78,4.78,0,0,0-2.33-.49,4.41,4.41,0,0,0-2.38.57,4,4,0,0,0-1.43,1.47,5.89,5.89,0,0,0-.68,2.06,15.17,15.17,0,0,0-.17,2.34V35.76h-7V21.52c0-.76,0-1.5,0-2.24a6.18,6.18,0,0,0-.42-2,3.07,3.07,0,0,0-1.22-1.49,4.62,4.62,0,0,0-2.53-.57,5.55,5.55,0,0,0-1.3.22,4.34,4.34,0,0,0-1.58.84A5,5,0,0,0,74.07,18a7.16,7.16,0,0,0-.54,3V35.76h-7V10.37Z" fill="none" stroke="#58595b" stroke-miterlimit="10" stroke-width="1.38"/><path d="M118.33,29.67a6.19,6.19,0,0,0,4.51,1.52,6.27,6.27,0,0,0,3.64-1.05,4.44,4.44,0,0,0,1.87-2.24h6.13A11.64,11.64,0,0,1,130,34.44a13.39,13.39,0,0,1-7.37,2,14.43,14.43,0,0,1-5.4-1,11.16,11.16,0,0,1-4.08-2.72,12.4,12.4,0,0,1-2.58-4.23,15.34,15.34,0,0,1-.91-5.4,14.89,14.89,0,0,1,.93-5.31,12.51,12.51,0,0,1,2.66-4.24,12.37,12.37,0,0,1,4.1-2.83,13.12,13.12,0,0,1,5.28-1,12.16,12.16,0,0,1,5.65,1.25,11.33,11.33,0,0,1,3.95,3.37,13.9,13.9,0,0,1,2.24,4.81,18.2,18.2,0,0,1,.49,5.65H116.61Q116.76,28.15,118.33,29.67Zm7.88-13.36a4.9,4.9,0,0,0-3.81-1.37,6,6,0,0,0-2.77.56,5.13,5.13,0,0,0-2.7,3.17,7.83,7.83,0,0,0-.32,1.67H128A8.05,8.05,0,0,0,126.21,16.31Z" fill="none" stroke="#58595b" stroke-miterlimit="10" stroke-width="1.38"/></g></g></svg>