<svg xmlns="http://www.w3.org/2000/svg" viewBox="0 0 163.91 37.09"><g id="Layer_2" data-name="Layer 2"><g id="Layer_1-2" data-name="Layer 1"><path d="M11.55.69l8.2,24.12h.1L27.61.69H38.46V35.76H31.24V10.91h-.1L22.55,35.76H16.61L8,11.15h-.1V35.76H.69V.69Z" fill="none" stroke="#58595b" stroke-miterlimit="10" stroke-width="1.38"/><path d="M44.65,17.56a11.59,11.59,0,0,1,6.78-6.92,14.43,14.43,0,0,1,5.4-1,14.67,14.67,0,0,1,5.43,1,11.93,11.93,0,0,1,4.15,2.7,11.8,11.8,0,0,1,2.65,4.22A15.69,15.69,0,0,1,70,23.09a15.44,15.44,0,0,1-.94,5.5,11.8,11.8,0,0,1-2.65,4.2,11.61,11.61,0,0,1-4.15,2.68,15.09,15.09,0,0,1-5.43.93,14.85,14.85,0,0,1-5.4-.93,11.62,11.62,0,0,1-4.13-2.68,11.94,11.94,0,0,1-2.65-4.2,15.44,15.44,0,0,1-.93-5.5A15.69,15.69,0,0,1,44.65,17.56ZM51,26.06a7.74,7.74,0,0,0,1,2.6,5.43,5.43,0,0,0,1.9,1.85,5.81,5.81,0,0,0,2.94.68,6,6,0,0,0,3-.68,5.32,5.32,0,0,0,1.92-1.85,8,8,0,0,0,1-2.6,15.34,15.34,0,0,0,.29-3,15.73,15.73,0,0,0-.29-3,7.8,7.8,0,0,0-1-2.6,5.56,5.56,0,0,0-1.92-1.84,5.68,5.68,0,0,0-3-.71,5.52,5.52,0,0,0-2.94.71A5.67,5.67,0,0,0,52,17.49a7.58,7.58,0,0,0-1,2.6,15,15,0,0,0-.3,3A14.6,14.6,0,0,0,51,26.06Z" fill="none" stroke="#58595b" stroke-miterlimit="10" stroke-width="1.38"/><path d="M80.8,35.76,72.11,10.37h7.32l5.35,17.34h.1l5.35-17.34h6.93l-8.6,25.39Z" fill="none" stroke="#58595b" stroke-miterlimit="10" stroke-width="1.38"/><path d="M100.25,6.44V.69h7V6.44Zm7,3.93V35.76h-7V10.37Z" fill="none" stroke="#58595b" stroke-miterlimit="10" stroke-width="1.38"/><path d="M120.19,29.67a7.18,7.18,0,0,0,8.16.47,4.41,4.41,0,0,0,1.86-2.24h6.14a11.65,11.65,0,0,1-4.52,6.54,13.36,13.36,0,0,1-7.36,2,14.52,14.52,0,0,1-5.41-1A11.21,11.21,0,0,1,115,32.72a12.1,12.1,0,0,1-2.58-4.23,15.34,15.34,0,0,1-.91-5.4,14.89,14.89,0,0,1,.93-5.31,12.29,12.29,0,0,1,6.76-7.07,13.06,13.06,0,0,1,5.28-1,12.09,12.09,0,0,1,5.64,1.25,11.28,11.28,0,0,1,4,3.37,13.88,13.88,0,0,1,2.23,4.81,17.9,17.9,0,0,1,.49,5.65H118.47Q118.62,28.15,120.19,29.67Zm7.89-13.36a4.9,4.9,0,0,0-3.81-1.37,6.07,6.07,0,0,0-2.78.56,5.3,5.3,0,0,0-1.76,1.4,5.07,5.07,0,0,0-.94,1.77,8.51,8.51,0,0,0-.32,1.67h11.35A8.14,8.14,0,0,0,128.08,16.31Z" fill="none" stroke="#58595b" stroke-miterlimit="10" stroke-width="1.38"/><path d="M146.79,29.45a4.15,4.15,0,0,0,1.2,1.33,5.38,5.38,0,0,0,1.7.76,8.1,8.1,0,0,0,2,.24,7,7,0,0,0,1.54-.17,5.12,5.12,0,0,0,1.48-.54,3.34,3.34,0,0,0,1.1-1,2.56,2.56,0,0,0,.44-1.55c0-1.05-.69-1.83-2.08-2.36a43.89,43.89,0,0,0-5.82-1.57c-1-.23-2-.5-3-.81a10.26,10.26,0,0,1-2.58-1.23A5.9,5.9,0,0,1,141,20.66a5.42,5.42,0,0,1-.69-2.83,7.6,7.6,0,0,1,1-4,7,7,0,0,1,2.53-2.48,10.84,10.84,0,0,1,3.53-1.28,21.5,21.5,0,0,1,4-.37,20.17,20.17,0,0,1,4,.39,10.85,10.85,0,0,1,3.47,1.33,8,8,0,0,1,2.53,2.48,8.32,8.32,0,0,1,1.2,3.9H155.9a3.05,3.05,0,0,0-1.52-2.72,6.92,6.92,0,0,0-3.25-.71,11.69,11.69,0,0,0-1.27.07,4.32,4.32,0,0,0-1.25.32,2.51,2.51,0,0,0-1,.71,1.89,1.89,0,0,0-.4,1.25,1.92,1.92,0,0,0,.69,1.53,5.27,5.27,0,0,0,1.8.95,21.56,21.56,0,0,0,2.52.67c1,.19,1.92.41,2.9.64a28.21,28.21,0,0,1,3,.83,9.76,9.76,0,0,1,2.58,1.3,6.18,6.18,0,0,1,1.82,2,5.88,5.88,0,0,1,.69,3,8.11,8.11,0,0,1-1,4.2,8,8,0,0,1-2.63,2.72A10.7,10.7,0,0,1,155.87,36a21.57,21.57,0,0,1-8.57,0,11.45,11.45,0,0,1-3.75-1.48,8.26,8.26,0,0,1-2.7-2.72,8.54,8.54,0,0,1-1.16-4.25h6.63A3.84,3.84,0,0,0,146.79,29.45Z" fill="none" stroke="#58595b" stroke-miterlimit="10" stroke-width="1.38"/></g></g></svg>