<svg xmlns="http://www.w3.org/2000/svg" xmlns:xlink="http://www.w3.org/1999/xlink" viewBox="0 0 842.89 596.28">
<defs>
<radialGradient id="radial-gradient" cx="421.44" cy="298.14" r="224.55" gradientUnits="userSpaceOnUse">
<stop offset="0" stop-color="#efad65"/>
<stop offset="0.07" stop-color="#f1b778" stop-opacity="0.88"/>
<stop offset="0.21" stop-color="#f5ca9b" stop-opacity="0.65"/>
<stop offset="0.34" stop-color="#f8daba" stop-opacity="0.45"/>
<stop offset="0.48" stop-color="#fae7d3" stop-opacity="0.29"/>
<stop offset="0.62" stop-color="#fcf2e6" stop-opacity="0.16"/>
<stop offset="0.75" stop-color="#fef9f4" stop-opacity="0.07"/>
<stop offset="0.88" stop-color="#fffefc" stop-opacity="0.02"/>
<stop offset="1" stop-color="#fff" stop-opacity="0"/>
</radialGradient>
</defs>
<g id="Layer_2" data-name="Layer 2">
<rect x="0.5" y="0.5" width="841.89" height="595.28" fill="#272727" stroke="#231f20" stroke-miterlimit="10"/>
</g>
<g id="Layer_1" data-name="Layer 1">
<circle cx="421.44" cy="298.14" r="132.47" fill="none" stroke="#4f4f4f" stroke-miterlimit="10" stroke-width="4" stroke-dasharray="49.54 9.91"/>
<circle cx="421.44" cy="298.14" r="169.26" fill="none" stroke="#4f4f4f" stroke-miterlimit="10" stroke-width="4" stroke-dasharray="49.24 9.85"/>
<circle cx="421.44" cy="298.14" r="233.39" fill="none" stroke="#4f4f4f" stroke-miterlimit="10" stroke-width="4" stroke-dasharray="50.92 10.18"/>
<circle cx="421.44" cy="298.14" r="224.55" fill="none" stroke="#4f4f4f" stroke-miterlimit="10" stroke-width="4"/>
<circle cx="421.44" cy="298.14" r="224.55" fill="url(#radial-gradient)"/>
<circle cx="421.44" cy="298.14" r="153.93" fill="none" stroke="#4f4f4f" stroke-miterlimit="10" stroke-width="4"/>
<circle cx="421.44" cy="298.14" r="120.69" fill="none" stroke="#4f4f4f" stroke-miterlimit="10" stroke-width="4"/>
<path d="M221.44,297.64c0-110.18,89.32-199.5,199.5-199.5" transform="translate(0.5 0.5)" fill="none" stroke="#75b1e0" stroke-miterlimit="10" stroke-width="3"/>
<path d="M420.94,497.14c-110.18,0-199.5-89.32-199.5-199.5" transform="translate(0.5 0.5)" fill="none" stroke="#75b1e0" stroke-miterlimit="10" stroke-width="3"/>
<path d="M620.44,297.64c0,110.18-89.31,199.5-199.5,199.5" transform="translate(0.5 0.5)" fill="none" stroke="#75b1e0" stroke-miterlimit="10" stroke-width="3"/>
<path d="M162,297.64" transform="translate(0.5 0.5)" fill="none" stroke="#75b1e0" stroke-miterlimit="10" stroke-width="3.89"/>
<path d="M145.92,297.64" transform="translate(0.5 0.5)" fill="none" stroke="#75b1e0" stroke-miterlimit="10" stroke-width="4.14"/>
<path d="M564.67,297.64A143.73,143.73,0,0,0,420.94,153.91" transform="translate(0.5 0.5)" fill="none" stroke="#82c781" stroke-miterlimit="10" stroke-width="3.62"/>
<path d="M420.94,441.37A143.73,143.73,0,0,0,564.67,297.64" transform="translate(0.5 0.5)" fill="none" stroke="#82c781" stroke-miterlimit="10" stroke-width="3.62"/>
</g>
</svg>