<svg id="Layer_1" data-name="Layer 1" xmlns="http://www.w3.org/2000/svg" viewBox="0 0 786.69 253.83"><text transform="translate(267.43 147.09)" font-size="135.72" fill="none" stroke="#58595b" stroke-miterlimit="10" stroke-width="3.83" font-family="HelveticaNeue-Bold, Helvetica Neue" font-weight="700">intrinsic</text><circle cx="126.91" cy="126.91" r="124.61" fill="none" stroke="#58595b" stroke-miterlimit="10" stroke-width="4.59"/><path d="M156.29,356.79a279.57,279.57,0,0,1-36.93-31.21,280.33,280.33,0,0,1-31.21-36.93c-26.16-37.33-35.31-72.78-20-88.12s50.78-6.19,88.12,20a280.33,280.33,0,0,1,36.93,31.21,279,279,0,0,1,31.21,36.94c26.16,37.34,35.31,72.78,20,88.11S193.62,383,156.29,356.79Z" transform="translate(-29.38 -161.73)" fill="none" stroke="#58595b" stroke-miterlimit="10" stroke-width="4.59"/><path d="M88.15,288.65A288.6,288.6,0,0,1,156.3,220.5c37.33-26.16,72.77-35.31,88.11-20s6.19,50.78-20,88.12a280.33,280.33,0,0,1-31.21,36.93,279,279,0,0,1-36.94,31.21C119,383,83.51,392.1,68.18,376.76S62,326,88.15,288.65Z" transform="translate(-29.38 -161.73)" fill="none" stroke="#58595b" stroke-miterlimit="10" stroke-width="4.59"/><path d="M187.77,257.17a44.5,44.5,0,0,1,0,62.95c5.48-5.47,2.21-18.13-7.14-31.47C190,275.31,193.25,262.64,187.77,257.17Z" transform="translate(-29.38 -161.73)" fill="#7dd3f3"/><path d="M187.77,257.17c5.48,5.47,2.21,18.14-7.14,31.48a102.41,102.41,0,0,0-24.34-24.34C169.62,255,182.29,251.69,187.77,257.17Z" transform="translate(-29.38 -161.73)" fill="#7dd3f3"/><path d="M180.63,288.65c9.35,13.34,12.62,26,7.14,31.47s-18.15,2.22-31.48-7.14a102.61,102.61,0,0,0,24.34-24.33Z" transform="translate(-29.38 -161.73)" fill="#b868aa"/><path d="M187.77,257.17c-5.48-5.48-18.15-2.21-31.48,7.14-13.34-9.35-26-12.62-31.48-7.14A44.51,44.51,0,0,1,187.77,257.17Z" transform="translate(-29.38 -161.73)" fill="#7dd3f3"/><path d="M156.29,313c13.33,9.36,26,12.62,31.48,7.14a44.51,44.51,0,0,1-63,0C130.29,325.6,143,322.34,156.29,313Z" transform="translate(-29.38 -161.73)" fill="#f491a2"/><path d="M169.49,275.45a100.38,100.38,0,0,1,11.14,13.2A102.61,102.61,0,0,1,156.29,313,102.82,102.82,0,0,1,132,288.65a98.23,98.23,0,0,1,11.14-13.2,99.67,99.67,0,0,1,13.19-11.14A100.38,100.38,0,0,1,169.49,275.45Z" transform="translate(-29.38 -161.73)" fill="#b868aa"/><path d="M156.29,264.31a99.67,99.67,0,0,0-13.19,11.14A98.23,98.23,0,0,0,132,288.65c-9.36-13.34-12.62-26-7.15-31.48S143,255,156.29,264.31Z" transform="translate(-29.38 -161.73)" fill="#b868aa"/><path d="M143.1,301.84A98.91,98.91,0,0,0,156.29,313c-13.34,9.36-26,12.62-31.48,7.14S122.6,302,132,288.65A99.67,99.67,0,0,0,143.1,301.84Z" transform="translate(-29.38 -161.73)" fill="#f491a2"/><path d="M124.81,257.17c-5.47,5.47-2.21,18.14,7.15,31.48-9.36,13.33-12.62,26-7.15,31.47A44.52,44.52,0,0,1,124.81,257.17Z" transform="translate(-29.38 -161.73)" fill="#f491a2"/><circle cx="126.91" cy="126.91" r="44.52" fill="none" stroke="#58595b" stroke-miterlimit="10" stroke-width="3.06"/><path d="M156.29,313A102.82,102.82,0,0,1,132,288.65c-9.36-13.34-12.62-26-7.15-31.48S143,255,156.29,264.31a102.41,102.41,0,0,1,24.34,24.34c9.35,13.34,12.62,26,7.14,31.47S169.62,322.34,156.29,313Z" transform="translate(-29.38 -161.73)" fill="none" stroke="#58595b" stroke-miterlimit="10" stroke-width="3.06"/><path d="M132,288.65a98.23,98.23,0,0,1,11.14-13.2,99.67,99.67,0,0,1,13.19-11.14c13.33-9.35,26-12.62,31.48-7.14s2.21,18.14-7.14,31.48A102.61,102.61,0,0,1,156.29,313c-13.34,9.36-26,12.62-31.48,7.14S122.6,302,132,288.65Z" transform="translate(-29.38 -161.73)" fill="none" stroke="#58595b" stroke-miterlimit="10" stroke-width="3.06"/><text transform="translate(251.67 205.35)" font-size="49.28" fill="none" stroke="#6b6c6f" stroke-miterlimit="10" stroke-width="1.53" font-family="HelveticaNeue-BoldItalic, Helvetica Neue" font-weight="700" font-style="italic">Find your meaning</text></svg>