<svg id="svg5" xmlns="http://www.w3.org/2000/svg" viewBox="0 0 703.48 564.89">
<g id="layer1">
<path id="path3234" d="M.57,292.62C152.09,310.81,200.62,380,261.83,453.44c65.17,78.25,118,141.76,118,141.76S417,638.48,459.3,665.14s80.53,43.16,112.33,51.53" transform="translate(43.17 -216.79)" fill="none" stroke="#6316c0" stroke-miterlimit="11.34" stroke-width="3.75"/>
<path id="path3234-3" d="M34.32,251.68C185.84,269.87,234.37,339,295.58,412.51c65.17,78.24,118,141.76,118,141.76s37.18,43.27,79.51,69.93,80.53,43.17,112.33,51.54" transform="translate(43.17 -216.79)" fill="none" stroke="#6316c0" stroke-miterlimit="11.34" stroke-width="3.75"/>
<path id="path3234-2" d="M-40.18,333.23c151.52,18.19,200.05,87.34,261.26,160.82,65.17,78.25,118,141.77,118,141.77s37.18,43.27,79.51,69.93,80.53,43.17,112.33,51.53" transform="translate(43.17 -216.79)" fill="none" stroke="#6316c0" stroke-miterlimit="11.34" stroke-width="3.75"/>
<path id="path3234-1" d="M61.23,218.65c151.51,18.19,200,87.34,261.25,160.82,65.18,78.25,118,141.76,118,141.76s37.18,43.28,79.51,69.94,80.53,43.16,112.33,51.53" transform="translate(43.17 -216.79)" fill="none" stroke="#6316c0" stroke-miterlimit="11.34" stroke-width="3.75"/>
<path id="path3234-4" d="M-2.2,315.19c151.51,18.2,200,87.35,261.25,160.83,65.18,78.25,118,141.76,118,141.76s37.18,43.28,79.51,69.94,80.53,43.16,112.33,51.53" transform="translate(43.17 -216.79)" fill="none" stroke="#6316c0" stroke-miterlimit="11.34" stroke-width="3.75" stroke-dasharray="7.5 3.75 1.88 3.75"/>
<path id="path3234-3-6" d="M31.55,274.26c151.52,18.19,200,87.35,261.26,160.83,65.17,78.24,118,141.76,118,141.76s37.18,43.27,79.51,69.93S570.81,690,602.61,698.32" transform="translate(43.17 -216.79)" fill="none" stroke="#6316c0" stroke-miterlimit="11.34" stroke-width="3.75" stroke-dasharray="7.5 3.75 1.88 3.75"/>
<path id="path3234-2-9" d="M-42.95,355.81C108.57,374,157.1,443.15,218.31,516.63c65.17,78.25,118,141.77,118,141.77s37.18,43.27,79.51,69.93,80.53,43.16,112.33,51.53" transform="translate(43.17 -216.79)" fill="none" stroke="#6316c0" stroke-miterlimit="11.34" stroke-width="3.75" stroke-dasharray="7.5 3.75 1.88 3.75"/>
<path id="path3234-1-3" d="M58.46,241.23c151.51,18.19,200,87.34,261.25,160.82,65.18,78.25,118,141.76,118,141.76s37.18,43.28,79.51,69.94,80.54,43.16,112.34,51.53" transform="translate(43.17 -216.79)" fill="none" stroke="#6316c0" stroke-miterlimit="11.34" stroke-width="3.75" stroke-dasharray="7.5 3.75 1.88 3.75"/>
<path id="path3234-4-5" d="M28.12,308.66c151.51,18.19,200,87.34,261.25,160.82,65.17,78.25,118,141.76,118,141.76s37.18,43.28,79.51,69.94,80.53,43.16,112.33,51.53" transform="translate(43.17 -216.79)" fill="none" stroke="#6316c0" stroke-miterlimit="11.34" stroke-width="3.75" stroke-dasharray="15 7.5 3.75 7.5"/>
<path id="path3234-3-6-0" d="M61.87,267.72c151.51,18.19,200.05,87.35,261.25,160.83,65.17,78.24,118,141.76,118,141.76s37.18,43.27,79.51,69.93,80.54,43.17,112.34,51.54" transform="translate(43.17 -216.79)" fill="none" stroke="#6316c0" stroke-miterlimit="11.34" stroke-width="3.75" stroke-dasharray="15 7.5 3.75 7.5"/>
<path id="path3234-2-9-9" d="M-12.63,349.27c151.51,18.19,200,87.34,261.25,160.82,65.17,78.25,118,141.77,118,141.77s37.18,43.27,79.51,69.93S526.63,765,558.43,773.32" transform="translate(43.17 -216.79)" fill="none" stroke="#6316c0" stroke-miterlimit="11.34" stroke-width="3.75" stroke-dasharray="15 7.5 3.75 7.5"/>
<path id="path3234-1-3-7" d="M88.77,234.69C240.29,252.88,288.82,322,350,395.51c65.17,78.25,118,141.76,118,141.76s37.18,43.28,79.51,69.94S628,650.37,659.83,658.74" transform="translate(43.17 -216.79)" fill="none" stroke="#6316c0" stroke-miterlimit="11.34" stroke-width="3.75" stroke-dasharray="15 7.5 3.75 7.5"/>
</g>
</svg>