<svg id="svg5" xmlns="http://www.w3.org/2000/svg" viewBox="0 0 667.83 602.06">
<g id="layer1">
<path id="path3234" d="M34,299.1C90.77,440.74,170.13,469.72,257,509.82c92.45,42.7,167.46,77.26,167.46,77.26s51.42,24.71,88.13,58.7,62.54,66.61,78.85,95.16" transform="translate(19.06 -198.21)" fill="none" stroke="#6316c0" stroke-miterlimit="11.34" stroke-width="3.75"/>
<path id="path3234-3" d="M64.79,255.9c56.79,141.64,136.15,170.63,223,210.73,92.45,42.7,167.47,77.25,167.47,77.25s51.42,24.71,88.13,58.7,62.53,66.62,78.85,95.17" transform="translate(19.06 -198.21)" fill="none" stroke="#6316c0" stroke-miterlimit="11.34" stroke-width="3.75"/>
<path id="path3234-2" d="M5.31,349c56.78,141.64,136.14,170.62,223,210.73C320.72,602.4,395.73,637,395.73,637s51.42,24.71,88.13,58.7,62.54,66.61,78.85,95.17" transform="translate(19.06 -198.21)" fill="none" stroke="#6316c0" stroke-miterlimit="11.34" stroke-width="3.75"/>
<path id="path3234-1" d="M89.74,221.36C146.52,363,225.88,392,312.7,432.09c92.45,42.7,167.46,77.25,167.46,77.25s51.42,24.71,88.13,58.7,62.54,66.62,78.85,95.17" transform="translate(19.06 -198.21)" fill="none" stroke="#6316c0" stroke-miterlimit="11.34" stroke-width="3.75"/>
<path id="path3234-4" d="M12.9,307.62C69.68,449.26,149,478.24,235.86,518.35c92.45,42.7,167.46,77.25,167.46,77.25s51.42,24.71,88.13,58.7S554,720.91,570.3,749.46" transform="translate(19.06 -198.21)" fill="none" stroke="#6316c0" stroke-miterlimit="11.34" stroke-width="3.75" stroke-dasharray="7.5 3.75 1.88 3.75"/>
<path id="path3234-3-6" d="M43.7,264.42c56.79,141.65,136.15,170.63,223,210.73,92.45,42.7,167.47,77.25,167.47,77.25s51.42,24.71,88.12,58.7,62.54,66.62,78.86,95.17" transform="translate(19.06 -198.21)" fill="none" stroke="#6316c0" stroke-miterlimit="11.34" stroke-width="3.75" stroke-dasharray="7.5 3.75 1.88 3.75"/>
<path id="path3234-2-9" d="M-15.79,357.49C41,499.13,120.36,528.12,207.18,568.22c92.45,42.7,167.46,77.25,167.46,77.25s51.42,24.71,88.13,58.7,62.54,66.62,78.85,95.17" transform="translate(19.06 -198.21)" fill="none" stroke="#6316c0" stroke-miterlimit="11.34" stroke-width="3.75" stroke-dasharray="7.5 3.75 1.88 3.75"/>
<path id="path3234-1-3" d="M68.65,229.88c56.78,141.65,136.14,170.63,223,210.73,92.45,42.7,167.46,77.25,167.46,77.25s51.42,24.71,88.13,58.7,62.54,66.62,78.85,95.17" transform="translate(19.06 -198.21)" fill="none" stroke="#6316c0" stroke-miterlimit="11.34" stroke-width="3.75" stroke-dasharray="7.5 3.75 1.88 3.75"/>
<path id="path3234-4-5" d="M11.37,276.64c56.78,141.65,136.14,170.63,223,210.73,92.45,42.7,167.46,77.25,167.46,77.25s51.42,24.72,88.13,58.7,62.54,66.62,78.85,95.17" transform="translate(19.06 -198.21)" fill="none" stroke="#6316c0" stroke-miterlimit="11.34" stroke-width="3.75" stroke-dasharray="15 7.5 3.75 7.5"/>
<path id="path3234-3-6-0" d="M42.17,233.45C99,375.09,178.32,404.08,265.13,444.18c92.45,42.7,167.47,77.25,167.47,77.25s51.42,24.71,88.12,58.7,62.54,66.62,78.86,95.17" transform="translate(19.06 -198.21)" fill="none" stroke="#6316c0" stroke-miterlimit="11.34" stroke-width="3.75" stroke-dasharray="15 7.5 3.75 7.5"/>
<path id="path3234-2-9-9" d="M-17.32,326.52c56.79,141.64,136.15,170.62,223,210.72,92.45,42.7,167.46,77.26,167.46,77.26s51.42,24.71,88.13,58.7,62.54,66.61,78.85,95.16" transform="translate(19.06 -198.21)" fill="none" stroke="#6316c0" stroke-miterlimit="11.34" stroke-width="3.75" stroke-dasharray="15 7.5 3.75 7.5"/>
<path id="path3234-1-3-7" d="M67.12,198.91c56.78,141.64,136.14,170.62,223,210.73,92.45,42.7,167.46,77.25,167.46,77.25s51.42,24.71,88.13,58.7,62.54,66.62,78.85,95.17" transform="translate(19.06 -198.21)" fill="none" stroke="#6316c0" stroke-miterlimit="11.34" stroke-width="3.75" stroke-dasharray="15 7.5 3.75 7.5"/>
</g>
</svg>