<svg id="Layer_1" data-name="Layer 1" xmlns="http://www.w3.org/2000/svg" viewBox="0 0 599.3 369.03">
<polyline points="152.94 6.5 34.56 65.15 187.69 171.58 6.5 185.73 136.63 248.29 215.79 362.53 546.05 319.3 592.8 144.43 466.81 83.61 284.9 65.15 152.94 6.5 187.69 171.58 284.9 65.15 315.88 140.02 466.81 83.61 546.05 319.3 315.88 140.02 187.69 171.58 136.63 248.29 315.88 140.02 215.79 362.53" fill="none" stroke="#231f20" stroke-miterlimit="10" stroke-width="2"/>
<line x1="152.94" y1="6.5" x2="152.89" y2="6.52" fill="none" stroke="#231f20" stroke-linecap="round" stroke-linejoin="round" stroke-width="13"/>
<polyline points="34.6 65.13 34.56 65.15 34.6 65.18" fill="none" stroke="#231f20" stroke-linecap="round" stroke-linejoin="round" stroke-width="13"/>
<polyline points="187.65 171.56 187.69 171.58 187.64 171.59" fill="none" stroke="#231f20" stroke-linecap="round" stroke-linejoin="round" stroke-width="13"/>
<polyline points="6.55 185.73 6.5 185.73 6.54 185.75" fill="none" stroke="#231f20" stroke-linecap="round" stroke-linejoin="round" stroke-width="13"/>
<polyline points="215.76 362.49 215.79 362.53 215.84 362.52" fill="none" stroke="#231f20" stroke-linecap="round" stroke-linejoin="round" stroke-width="13"/>
<polyline points="546 319.3 546.05 319.3 546.06 319.25" fill="none" stroke="#231f20" stroke-linecap="round" stroke-linejoin="round" stroke-width="13"/>
<polyline points="592.79 144.48 592.8 144.43 592.75 144.41" fill="none" stroke="#231f20" stroke-linecap="round" stroke-linejoin="round" stroke-width="13"/>
<polyline points="152.99 6.52 152.94 6.5 152.95 6.55" fill="none" stroke="#231f20" stroke-linecap="round" stroke-linejoin="round" stroke-width="13"/>
<polyline points="187.68 171.53 187.69 171.58 187.73 171.55" fill="none" stroke="#231f20" stroke-linecap="round" stroke-linejoin="round" stroke-width="13"/>
<polyline points="284.86 65.19 284.9 65.15 284.92 65.19" fill="none" stroke="#231f20" stroke-linecap="round" stroke-linejoin="round" stroke-width="13"/>
<polyline points="315.86 139.98 315.88 140.02 315.93 140.01" fill="none" stroke="#231f20" stroke-linecap="round" stroke-linejoin="round" stroke-width="13"/>
<polyline points="466.77 83.63 466.81 83.61 466.83 83.66" fill="none" stroke="#231f20" stroke-linecap="round" stroke-linejoin="round" stroke-width="13"/>
<polyline points="546.03 319.25 546.05 319.3 546.01 319.26" fill="none" stroke="#231f20" stroke-linecap="round" stroke-linejoin="round" stroke-width="13"/>
<polyline points="315.92 140.05 315.88 140.02 315.83 140.03" fill="none" stroke="#231f20" stroke-linecap="round" stroke-linejoin="round" stroke-width="13"/>
<polyline points="136.66 248.25 136.63 248.29 136.67 248.26" fill="none" stroke="#231f20" stroke-linecap="round" stroke-linejoin="round" stroke-width="13"/>
<polyline points="315.84 140.05 315.88 140.02 315.86 140.07" fill="none" stroke="#231f20" stroke-linecap="round" stroke-linejoin="round" stroke-width="13"/>
<line x1="215.81" y1="362.48" x2="215.79" y2="362.53" fill="none" stroke="#231f20" stroke-linecap="round" stroke-linejoin="round" stroke-width="13"/>
</svg>