<svg id="Layer_1" data-name="Layer 1" xmlns="http://www.w3.org/2000/svg" viewBox="0 0 513.68 473.5">
<polyline points="124.88 6.5 6.5 65.15 76.01 212.85 41.25 357.3 163.98 445.27 329.06 467 373.59 301.91 507.18 211.77 438.76 83.61 256.84 65.15 124.88 6.5 76.01 212.85 256.84 65.15 213.65 252.94 438.76 83.61 373.59 301.91 213.65 252.94 76.01 212.85 163.98 445.27 213.65 252.94 329.06 467" fill="none" stroke="#231f20" stroke-miterlimit="10" stroke-width="2"/>
<line x1="124.88" y1="6.5" x2="124.84" y2="6.52" fill="none" stroke="#231f20" stroke-linecap="round" stroke-linejoin="round" stroke-width="13"/>
<polyline points="6.54 65.13 6.5 65.15 6.52 65.19" fill="none" stroke="#231f20" stroke-linecap="round" stroke-linejoin="round" stroke-width="13"/>
<polyline points="41.27 357.25 41.25 357.3 41.3 357.33" fill="none" stroke="#231f20" stroke-linecap="round" stroke-linejoin="round" stroke-width="13"/>
<polyline points="329.01 466.99 329.06 467 329.08 466.95" fill="none" stroke="#231f20" stroke-linecap="round" stroke-linejoin="round" stroke-width="13"/>
<polyline points="507.14 211.8 507.18 211.77 507.16 211.72" fill="none" stroke="#231f20" stroke-linecap="round" stroke-linejoin="round" stroke-width="13"/>
<polyline points="438.78 83.66 438.76 83.61 438.71 83.61" fill="none" stroke="#231f20" stroke-linecap="round" stroke-linejoin="round" stroke-width="13"/>
<polyline points="124.93 6.52 124.88 6.5 124.87 6.55" fill="none" stroke="#231f20" stroke-linecap="round" stroke-linejoin="round" stroke-width="13"/>
<polyline points="76.02 212.81 76.01 212.85 76.05 212.82" fill="none" stroke="#231f20" stroke-linecap="round" stroke-linejoin="round" stroke-width="13"/>
<polyline points="256.8 65.18 256.84 65.15 256.83 65.2" fill="none" stroke="#231f20" stroke-linecap="round" stroke-linejoin="round" stroke-width="13"/>
<polyline points="213.66 252.9 213.65 252.94 213.69 252.91" fill="none" stroke="#231f20" stroke-linecap="round" stroke-linejoin="round" stroke-width="13"/>
<polyline points="438.72 83.64 438.76 83.61 438.74 83.66" fill="none" stroke="#231f20" stroke-linecap="round" stroke-linejoin="round" stroke-width="13"/>
<polyline points="373.61 301.86 373.59 301.91 373.55 301.9" fill="none" stroke="#231f20" stroke-linecap="round" stroke-linejoin="round" stroke-width="13"/>
<polyline points="76.06 212.87 76.01 212.85 76.03 212.9" fill="none" stroke="#231f20" stroke-linecap="round" stroke-linejoin="round" stroke-width="13"/>
<polyline points="163.96 445.23 163.98 445.27 163.99 445.23" fill="none" stroke="#231f20" stroke-linecap="round" stroke-linejoin="round" stroke-width="13"/>
<polyline points="213.64 252.99 213.65 252.94 213.68 252.99" fill="none" stroke="#231f20" stroke-linecap="round" stroke-linejoin="round" stroke-width="13"/>
<line x1="329.04" y1="466.95" x2="329.06" y2="467" fill="none" stroke="#231f20" stroke-linecap="round" stroke-linejoin="round" stroke-width="13"/>
</svg>